<svg width="41" height="41" viewBox="0 0 41 41" fill="none" xmlns="http://www.w3.org/2000/svg">
<path d="M20.5 0L22.062 3.14515L24.1604 0.329443L25.1357 3.70295L27.7032 1.30718L28.0604 4.80062L31.0144 2.9018L30.7422 6.40288L33.9877 5.06203L33.0947 8.45823L36.5275 7.71846L35.0424 10.9006L38.5522 10.7857L36.5228 13.6515L39.9967 14.1652L37.4881 16.6226L40.8145 17.7482L37.9075 19.7182L40.9794 21.4197L37.7673 22.839L40.486 25.0617L37.0722 25.8846L39.3503 28.557L35.8444 28.7572L37.6087 31.7934L34.1234 31.3643L35.3173 34.6668L31.9646 33.6223L32.5496 37.0848L29.4373 35.4585L29.3946 38.9699L26.6227 36.8139L25.9538 40.2612L23.6114 37.645L22.3376 40.9175L20.5 37.925L18.6624 40.9175L17.3886 37.645L15.0462 40.2612L14.3773 36.8139L11.6054 38.9699L11.5627 35.4585L8.4504 37.0848L9.03542 33.6223L5.6827 34.6668L6.87659 31.3643L3.39125 31.7934L5.15562 28.7572L1.64968 28.557L3.92784 25.8846L0.513977 25.0617L3.2327 22.839L0.0206413 21.4197L3.09254 19.7182L0.18553 17.7482L3.51188 16.6226L1.00334 14.1652L4.47723 13.6515L2.44779 10.7857L5.95756 10.9006L4.47245 7.71846L7.9053 8.45823L7.01226 5.06203L10.2578 6.40288L9.98557 2.9018L12.9396 4.80062L13.2968 1.30718L15.8643 3.70295L16.8396 0.329443L18.938 3.14515L20.5 0Z" fill="#FFF500"/>
<path d="M13.7194 18.4242L15.5984 25.4369L13.569 25.9806L10.3745 22.7711L9.56421 21.8722L9.55358 21.875L9.94342 23.1599L10.8915 26.6981L9.27644 27.1308L7.39742 20.1182L9.42683 19.5744L12.6214 22.784L13.4316 23.6829L13.4423 23.6801L13.0524 22.3952L12.1044 18.857L13.7194 18.4242ZM17.4707 24.9352L15.5917 17.9226L21.053 16.4592L21.4317 17.8724L17.7979 18.846L18.1794 20.2698L21.0694 19.4954L21.4253 20.8236L18.5352 21.598L18.9196 23.0324L22.6915 22.0217L23.0702 23.4348L17.4707 24.9352ZM25.8419 22.6922L21.944 16.2205L23.8884 15.6995L26.5618 20.9163L26.3322 15.0446L27.9898 14.6005L30.7559 19.7811L30.4442 13.9429L32.3248 13.4389L32.1745 20.9953L30.1876 21.5277L28.4477 18.3497L27.6706 16.7245L27.6494 16.7302L27.7996 18.5234L27.8925 22.1427L25.8419 22.6922Z" fill="black"/>
</svg>
