<svg width="18" height="18" viewBox="0 0 18 18" fill="none" xmlns="http://www.w3.org/2000/svg">
<path d="M1.81802 0.727229C1.30296 0.898915 0.898793 1.30308 0.727107 1.81814C0.255027 3.23438 0.255027 4.76553 0.727107 6.18177C0.898793 6.69683 1.30296 7.101 1.81802 7.27268C3.23426 7.74476 4.76541 7.74476 6.18165 7.27268C6.69671 7.101 7.10088 6.69683 7.27256 6.18177C7.74464 4.76553 7.74464 3.23438 7.27256 1.81814C7.10088 1.30308 6.69671 0.898915 6.18165 0.727229C4.76541 0.255149 3.23426 0.255149 1.81802 0.727229Z" fill="#FF2E29"/>
<path d="M11.818 0.727229C11.303 0.898915 10.8988 1.30308 10.7271 1.81814C10.255 3.23438 10.255 4.76553 10.7271 6.18177C10.8988 6.69683 11.303 7.101 11.818 7.27268C13.2343 7.74476 14.7654 7.74476 16.1817 7.27268C16.6967 7.101 17.1009 6.69683 17.2726 6.18177C17.7446 4.76553 17.7446 3.23438 17.2726 1.81814C17.1009 1.30308 16.6967 0.898915 16.1817 0.727229C14.7654 0.255149 13.2343 0.255149 11.818 0.727229Z" fill="#FF2E29"/>
<path d="M0.727107 11.8181C0.898793 11.3031 1.30296 10.8989 1.81802 10.7272C3.23426 10.2551 4.76541 10.2551 6.18165 10.7272C6.69671 10.8989 7.10088 11.3031 7.27256 11.8181C7.74464 13.2344 7.74464 14.7655 7.27256 16.1818C7.10088 16.6968 6.69671 17.101 6.18165 17.2727C4.76541 17.7448 3.23426 17.7448 1.81802 17.2727C1.30296 17.101 0.898793 16.6968 0.727107 16.1818C0.255027 14.7655 0.255027 13.2344 0.727107 11.8181Z" fill="#FF2E29"/>
<path d="M11.818 10.7272C11.303 10.8989 10.8988 11.3031 10.7271 11.8181C10.255 13.2344 10.255 14.7655 10.7271 16.1818C10.8988 16.6968 11.303 17.101 11.818 17.2727C13.2343 17.7448 14.7654 17.7448 16.1817 17.2727C16.6967 17.101 17.1009 16.6968 17.2726 16.1818C17.7446 14.7655 17.7446 13.2344 17.2726 11.8181C17.1009 11.3031 16.6967 10.8989 16.1817 10.7272C14.7654 10.2551 13.2343 10.2551 11.818 10.7272Z" fill="#FF2E29"/>
</svg>
